<svg width="138" height="141" viewBox="0 0 138 141" fill="none" xmlns="http://www.w3.org/2000/svg">
<path d="M115 11.75H23C19.95 11.75 17.0249 12.9879 14.8683 15.1915C12.7116 17.395 11.5 20.3837 11.5 23.5V94C11.5 97.1163 12.7116 100.105 14.8683 102.309C17.0249 104.512 19.95 105.75 23 105.75H57.5V117.5H40.25V129.25H97.75V117.5H80.5V105.75H115C118.05 105.75 120.975 104.512 123.132 102.309C125.288 100.105 126.5 97.1163 126.5 94V23.5C126.5 20.3837 125.288 17.395 123.132 15.1915C120.975 12.9879 118.05 11.75 115 11.75ZM115 94H23V23.5H115V94Z" fill="#FFFF00"/>
</svg>
